<mxfile host="Electron" modified="2024-05-05T15:28:21.429Z" agent="Mozilla/5.0 (X11; Linux x86_64) AppleWebKit/537.36 (KHTML, like Gecko) draw.io/24.2.5 Chrome/120.0.6099.109 Electron/28.1.0 Safari/537.36" etag="Wq80UwNwBWP_O_GnM_CT" version="24.2.5" type="device">
  <diagram name="PÃ¡gina-1" id="E-DP9fMv0TR5NF7smadX">
    <mxGraphModel dx="1605" dy="992" grid="1" gridSize="6" guides="1" tooltips="1" connect="1" arrows="1" fold="1" page="1" pageScale="1" pageWidth="919" pageHeight="600" math="1" shadow="0">
      <root>
        <mxCell id="0" />
        <mxCell id="1" parent="0" />
        <mxCell id="CFI3S7LzRvd9iii7xQHX-2" value="" style="rounded=0;whiteSpace=wrap;html=1;fillColor=#E6E6E6;" parent="1" vertex="1">
          <mxGeometry x="552" y="24" width="306" height="504" as="geometry" />
        </mxCell>
        <mxCell id="n1ygy-aPpmhhlMC6oy7T-3" value="" style="rounded=1;whiteSpace=wrap;html=1;strokeWidth=4;fillColor=#FFCCCC;gradientColor=none;fillStyle=auto;" vertex="1" parent="1">
          <mxGeometry x="576" y="36" width="258" height="60" as="geometry" />
        </mxCell>
        <mxCell id="n1ygy-aPpmhhlMC6oy7T-4" value="" style="rounded=1;whiteSpace=wrap;html=1;strokeWidth=4;fillColor=#FFCCCC;" vertex="1" parent="1">
          <mxGeometry x="576" y="96" width="258" height="180" as="geometry" />
        </mxCell>
        <mxCell id="n1ygy-aPpmhhlMC6oy7T-5" value="" style="rounded=1;whiteSpace=wrap;html=1;strokeWidth=4;fillColor=#FFCCCC;" vertex="1" parent="1">
          <mxGeometry x="576" y="276" width="258" height="180" as="geometry" />
        </mxCell>
        <mxCell id="n1ygy-aPpmhhlMC6oy7T-6" value="" style="rounded=1;whiteSpace=wrap;html=1;strokeWidth=4;fillColor=#FFCCCC;" vertex="1" parent="1">
          <mxGeometry x="576" y="456" width="258" height="60" as="geometry" />
        </mxCell>
        <mxCell id="CFI3S7LzRvd9iii7xQHX-3" value="\(\Omega\)" style="text;html=1;align=center;verticalAlign=middle;whiteSpace=wrap;rounded=0;fontSize=31;" parent="1" vertex="1">
          <mxGeometry x="858" y="24" width="60" height="48" as="geometry" />
        </mxCell>
        <mxCell id="CFI3S7LzRvd9iii7xQHX-4" value="\(\omega_1 = (FFF)\)" style="text;html=1;align=center;verticalAlign=middle;whiteSpace=wrap;rounded=0;fontSize=31;" parent="1" vertex="1">
          <mxGeometry x="612" y="42" width="216" height="48" as="geometry" />
        </mxCell>
        <mxCell id="CFI3S7LzRvd9iii7xQHX-5" value="\(\omega_2 = (FFS)\)" style="text;html=1;align=center;verticalAlign=middle;whiteSpace=wrap;rounded=0;fontSize=31;" parent="1" vertex="1">
          <mxGeometry x="612" y="102" width="216" height="48" as="geometry" />
        </mxCell>
        <mxCell id="CFI3S7LzRvd9iii7xQHX-6" value="\(\omega_3 = (FSF)\)" style="text;html=1;align=center;verticalAlign=middle;whiteSpace=wrap;rounded=0;fontSize=31;" parent="1" vertex="1">
          <mxGeometry x="612" y="162" width="216" height="48" as="geometry" />
        </mxCell>
        <mxCell id="CFI3S7LzRvd9iii7xQHX-7" value="\(\omega_4 = (SFF)\)" style="text;html=1;align=center;verticalAlign=middle;whiteSpace=wrap;rounded=0;fontSize=31;" parent="1" vertex="1">
          <mxGeometry x="612" y="222" width="216" height="48" as="geometry" />
        </mxCell>
        <mxCell id="CFI3S7LzRvd9iii7xQHX-8" value="\(\omega_5 = (FSS)\)" style="text;html=1;align=center;verticalAlign=middle;whiteSpace=wrap;rounded=0;fontSize=31;" parent="1" vertex="1">
          <mxGeometry x="612" y="282" width="216" height="48" as="geometry" />
        </mxCell>
        <mxCell id="CFI3S7LzRvd9iii7xQHX-9" value="\(\omega_6 = (SFS)\)" style="text;html=1;align=center;verticalAlign=middle;whiteSpace=wrap;rounded=0;fontSize=31;" parent="1" vertex="1">
          <mxGeometry x="612" y="342" width="216" height="48" as="geometry" />
        </mxCell>
        <mxCell id="CFI3S7LzRvd9iii7xQHX-10" value="\(\omega_7 = (SSF)\)" style="text;html=1;align=center;verticalAlign=middle;whiteSpace=wrap;rounded=0;fontSize=31;" parent="1" vertex="1">
          <mxGeometry x="612" y="402" width="216" height="48" as="geometry" />
        </mxCell>
        <mxCell id="CFI3S7LzRvd9iii7xQHX-11" value="\(\omega_8 = (SSS)\)" style="text;html=1;align=center;verticalAlign=middle;whiteSpace=wrap;rounded=0;fontSize=31;" parent="1" vertex="1">
          <mxGeometry x="612" y="462" width="216" height="48" as="geometry" />
        </mxCell>
        <mxCell id="CFI3S7LzRvd9iii7xQHX-12" value="" style="ellipse;whiteSpace=wrap;html=1;fillColor=#000000;" parent="1" vertex="1">
          <mxGeometry x="588" y="64" width="8" height="8" as="geometry" />
        </mxCell>
        <mxCell id="CFI3S7LzRvd9iii7xQHX-13" value="" style="ellipse;whiteSpace=wrap;html=1;fillColor=#000000;" parent="1" vertex="1">
          <mxGeometry x="588" y="124" width="8" height="8" as="geometry" />
        </mxCell>
        <mxCell id="CFI3S7LzRvd9iii7xQHX-14" value="" style="ellipse;whiteSpace=wrap;html=1;fillColor=#000000;" parent="1" vertex="1">
          <mxGeometry x="588" y="184" width="8" height="8" as="geometry" />
        </mxCell>
        <mxCell id="CFI3S7LzRvd9iii7xQHX-15" value="" style="ellipse;whiteSpace=wrap;html=1;fillColor=#000000;" parent="1" vertex="1">
          <mxGeometry x="588" y="244" width="8" height="8" as="geometry" />
        </mxCell>
        <mxCell id="CFI3S7LzRvd9iii7xQHX-16" value="" style="ellipse;whiteSpace=wrap;html=1;fillColor=#000000;" parent="1" vertex="1">
          <mxGeometry x="588" y="304" width="8" height="8" as="geometry" />
        </mxCell>
        <mxCell id="CFI3S7LzRvd9iii7xQHX-17" value="" style="ellipse;whiteSpace=wrap;html=1;fillColor=#000000;" parent="1" vertex="1">
          <mxGeometry x="588" y="364" width="8" height="8" as="geometry" />
        </mxCell>
        <mxCell id="CFI3S7LzRvd9iii7xQHX-18" value="" style="ellipse;whiteSpace=wrap;html=1;fillColor=#000000;" parent="1" vertex="1">
          <mxGeometry x="588" y="424" width="8" height="8" as="geometry" />
        </mxCell>
        <mxCell id="CFI3S7LzRvd9iii7xQHX-19" value="" style="ellipse;whiteSpace=wrap;html=1;fillColor=#000000;" parent="1" vertex="1">
          <mxGeometry x="588" y="484" width="8" height="8" as="geometry" />
        </mxCell>
        <mxCell id="CFI3S7LzRvd9iii7xQHX-20" value="" style="endArrow=classic;html=1;rounded=0;strokeWidth=3;" parent="1" edge="1">
          <mxGeometry width="50" height="50" relative="1" as="geometry">
            <mxPoint x="48" y="528" as="sourcePoint" />
            <mxPoint x="456" y="528" as="targetPoint" />
          </mxGeometry>
        </mxCell>
        <mxCell id="CFI3S7LzRvd9iii7xQHX-21" value="" style="endArrow=none;html=1;rounded=0;strokeWidth=2;" parent="1" edge="1">
          <mxGeometry width="50" height="50" relative="1" as="geometry">
            <mxPoint x="96" y="540" as="sourcePoint" />
            <mxPoint x="96" y="528" as="targetPoint" />
          </mxGeometry>
        </mxCell>
        <mxCell id="CFI3S7LzRvd9iii7xQHX-22" value="" style="endArrow=none;html=1;rounded=0;strokeWidth=2;" parent="1" edge="1">
          <mxGeometry width="50" height="50" relative="1" as="geometry">
            <mxPoint x="192" y="540" as="sourcePoint" />
            <mxPoint x="192" y="528" as="targetPoint" />
          </mxGeometry>
        </mxCell>
        <mxCell id="CFI3S7LzRvd9iii7xQHX-23" value="" style="endArrow=none;html=1;rounded=0;strokeWidth=2;" parent="1" edge="1">
          <mxGeometry width="50" height="50" relative="1" as="geometry">
            <mxPoint x="288" y="540" as="sourcePoint" />
            <mxPoint x="288" y="528" as="targetPoint" />
          </mxGeometry>
        </mxCell>
        <mxCell id="CFI3S7LzRvd9iii7xQHX-24" value="" style="endArrow=none;html=1;rounded=0;strokeWidth=2;" parent="1" edge="1">
          <mxGeometry width="50" height="50" relative="1" as="geometry">
            <mxPoint x="384" y="540" as="sourcePoint" />
            <mxPoint x="384" y="528" as="targetPoint" />
          </mxGeometry>
        </mxCell>
        <mxCell id="CFI3S7LzRvd9iii7xQHX-25" value="0" style="text;html=1;align=center;verticalAlign=middle;whiteSpace=wrap;rounded=0;fontSize=25;" parent="1" vertex="1">
          <mxGeometry x="66" y="534" width="60" height="48" as="geometry" />
        </mxCell>
        <mxCell id="CFI3S7LzRvd9iii7xQHX-27" value="1" style="text;html=1;align=center;verticalAlign=middle;whiteSpace=wrap;rounded=0;fontSize=25;" parent="1" vertex="1">
          <mxGeometry x="162" y="534" width="60" height="48" as="geometry" />
        </mxCell>
        <mxCell id="CFI3S7LzRvd9iii7xQHX-28" value="2" style="text;html=1;align=center;verticalAlign=middle;whiteSpace=wrap;rounded=0;fontSize=25;" parent="1" vertex="1">
          <mxGeometry x="258" y="534" width="60" height="48" as="geometry" />
        </mxCell>
        <mxCell id="CFI3S7LzRvd9iii7xQHX-29" value="3" style="text;html=1;align=center;verticalAlign=middle;whiteSpace=wrap;rounded=0;fontSize=25;" parent="1" vertex="1">
          <mxGeometry x="354" y="534" width="60" height="48" as="geometry" />
        </mxCell>
        <mxCell id="CFI3S7LzRvd9iii7xQHX-30" value="" style="curved=1;endArrow=classic;html=1;rounded=0;exitX=0;exitY=0.5;exitDx=0;exitDy=0;strokeWidth=2;dashed=1;dashPattern=1 1;" parent="1" source="CFI3S7LzRvd9iii7xQHX-12" edge="1">
          <mxGeometry width="50" height="50" relative="1" as="geometry">
            <mxPoint x="432" y="102" as="sourcePoint" />
            <mxPoint x="96" y="528" as="targetPoint" />
            <Array as="points">
              <mxPoint x="354" y="90" />
              <mxPoint x="162" y="156" />
              <mxPoint x="96" y="342" />
            </Array>
          </mxGeometry>
        </mxCell>
        <mxCell id="CFI3S7LzRvd9iii7xQHX-31" value="" style="curved=1;endArrow=classic;html=1;rounded=0;exitX=0;exitY=0.5;exitDx=0;exitDy=0;strokeWidth=2;dashed=1;dashPattern=1 1;" parent="1" source="CFI3S7LzRvd9iii7xQHX-13" edge="1">
          <mxGeometry width="50" height="50" relative="1" as="geometry">
            <mxPoint x="684" y="92" as="sourcePoint" />
            <mxPoint x="192" y="528" as="targetPoint" />
            <Array as="points">
              <mxPoint x="366" y="150" />
              <mxPoint x="246" y="234" />
              <mxPoint x="198" y="348" />
            </Array>
          </mxGeometry>
        </mxCell>
        <mxCell id="CFI3S7LzRvd9iii7xQHX-32" value="" style="curved=1;endArrow=classic;html=1;rounded=0;exitX=0;exitY=0.5;exitDx=0;exitDy=0;strokeWidth=2;dashed=1;dashPattern=1 1;" parent="1" source="CFI3S7LzRvd9iii7xQHX-14" edge="1">
          <mxGeometry width="50" height="50" relative="1" as="geometry">
            <mxPoint x="588" y="152" as="sourcePoint" />
            <mxPoint x="192" y="528" as="targetPoint" />
            <Array as="points">
              <mxPoint x="408" y="216" />
              <mxPoint x="294" y="270" />
              <mxPoint x="210" y="390" />
            </Array>
          </mxGeometry>
        </mxCell>
        <mxCell id="CFI3S7LzRvd9iii7xQHX-33" value="" style="curved=1;endArrow=classic;html=1;rounded=0;exitX=0;exitY=0.5;exitDx=0;exitDy=0;strokeWidth=2;dashed=1;dashPattern=1 1;" parent="1" source="CFI3S7LzRvd9iii7xQHX-15" edge="1">
          <mxGeometry width="50" height="50" relative="1" as="geometry">
            <mxPoint x="588" y="212" as="sourcePoint" />
            <mxPoint x="192" y="528" as="targetPoint" />
            <Array as="points">
              <mxPoint x="420" y="270" />
              <mxPoint x="306" y="300" />
              <mxPoint x="216" y="402" />
            </Array>
          </mxGeometry>
        </mxCell>
        <mxCell id="CFI3S7LzRvd9iii7xQHX-34" value="" style="curved=1;endArrow=classic;html=1;rounded=0;exitX=0;exitY=0.5;exitDx=0;exitDy=0;strokeWidth=2;dashed=1;dashPattern=1 1;" parent="1" source="CFI3S7LzRvd9iii7xQHX-16" edge="1">
          <mxGeometry width="50" height="50" relative="1" as="geometry">
            <mxPoint x="684" y="272" as="sourcePoint" />
            <mxPoint x="288" y="528" as="targetPoint" />
            <Array as="points">
              <mxPoint x="468" y="318" />
              <mxPoint x="396" y="330" />
              <mxPoint x="336" y="360" />
              <mxPoint x="288" y="438" />
            </Array>
          </mxGeometry>
        </mxCell>
        <mxCell id="CFI3S7LzRvd9iii7xQHX-35" value="" style="curved=1;endArrow=classic;html=1;rounded=0;exitX=0;exitY=0.5;exitDx=0;exitDy=0;strokeWidth=2;dashed=1;dashPattern=1 1;" parent="1" source="CFI3S7LzRvd9iii7xQHX-17" edge="1">
          <mxGeometry width="50" height="50" relative="1" as="geometry">
            <mxPoint x="588" y="308" as="sourcePoint" />
            <mxPoint x="288" y="528" as="targetPoint" />
            <Array as="points">
              <mxPoint x="480" y="368" />
              <mxPoint x="408" y="372" />
              <mxPoint x="378" y="378" />
              <mxPoint x="342" y="396" />
              <mxPoint x="306" y="438" />
            </Array>
          </mxGeometry>
        </mxCell>
        <mxCell id="CFI3S7LzRvd9iii7xQHX-36" value="" style="curved=1;endArrow=classic;html=1;rounded=0;exitX=0;exitY=0.5;exitDx=0;exitDy=0;strokeWidth=2;dashed=1;dashPattern=1 1;" parent="1" source="CFI3S7LzRvd9iii7xQHX-18" edge="1">
          <mxGeometry width="50" height="50" relative="1" as="geometry">
            <mxPoint x="588" y="368" as="sourcePoint" />
            <mxPoint x="288" y="528" as="targetPoint" />
            <Array as="points">
              <mxPoint x="486" y="420" />
              <mxPoint x="366" y="426" />
              <mxPoint x="318" y="450" />
            </Array>
          </mxGeometry>
        </mxCell>
        <mxCell id="CFI3S7LzRvd9iii7xQHX-37" value="" style="curved=1;endArrow=classic;html=1;rounded=0;exitX=0;exitY=0.5;exitDx=0;exitDy=0;strokeWidth=2;dashed=1;dashPattern=1 1;" parent="1" source="CFI3S7LzRvd9iii7xQHX-19" edge="1">
          <mxGeometry width="50" height="50" relative="1" as="geometry">
            <mxPoint x="684" y="368" as="sourcePoint" />
            <mxPoint x="384" y="528" as="targetPoint" />
            <Array as="points">
              <mxPoint x="534" y="474" />
              <mxPoint x="468" y="462" />
              <mxPoint x="414" y="462" />
              <mxPoint x="390" y="486" />
            </Array>
          </mxGeometry>
        </mxCell>
        <mxCell id="CFI3S7LzRvd9iii7xQHX-39" value="\(X\)" style="text;html=1;align=center;verticalAlign=middle;whiteSpace=wrap;rounded=0;fontSize=31;" parent="1" vertex="1">
          <mxGeometry x="122" y="59" width="60" height="48" as="geometry" />
        </mxCell>
        <mxCell id="CFI3S7LzRvd9iii7xQHX-40" value="\(X(\omega)\)" style="text;html=1;align=center;verticalAlign=middle;whiteSpace=wrap;rounded=0;fontSize=31;" parent="1" vertex="1">
          <mxGeometry x="460" y="534" width="60" height="48" as="geometry" />
        </mxCell>
      </root>
    </mxGraphModel>
  </diagram>
</mxfile>
